
<svg version="1.1" xmlns="http://www.w3.org/2000/svg" xmlns:xlink="http://www.w3.org/1999/xlink" viewBox="0 0 172 172"><defs><linearGradient x1="86.00067" y1="14.49335" x2="86.00067" y2="164.59594" gradientUnits="userSpaceOnUse" id="color-1"><stop offset="0" stop-color="#1a6dff"></stop><stop offset="1" stop-color="#c822ff"></stop></linearGradient><linearGradient x1="16301.73067" y1="29937.98603" x2="16301.73067" y2="1580.00509" gradientUnits="userSpaceOnUse" id="color-2"><stop offset="0" stop-color="#1a6dff"></stop><stop offset="1" stop-color="#c822ff"></stop></linearGradient></defs><g fill="none" fill-rule="nonzero" stroke="none" stroke-width="1" stroke-linecap="butt" stroke-linejoin="miter" stroke-miterlimit="10" stroke-dasharray="" stroke-dashoffset="0" font-family="none" font-weight="none" font-size="none" text-anchor="none" style="mix-blend-mode: normal"><path d="M0,172v-172h172v172z" fill="none"></path><g><path d="M152.16558,73.00359l-11.94224,-1.14958c-1.32139,-4.9896 -3.33519,-9.76952 -5.98271,-14.20041l7.59017,-9.15329c1.10246,-1.32938 1.01733,-3.27809 -0.19686,-4.50627l-13.4627,-13.61689c-1.22332,-1.23755 -3.18917,-1.3361 -4.53012,-0.22709l-9.19125,7.60159c-4.43888,-2.63708 -9.21798,-4.65386 -14.20411,-5.99413l-1.15092,-11.92578c-0.16709,-1.72165 -1.61419,-3.03499 -3.34392,-3.03486h-19.33018c-1.73044,-0.00003 -3.1778,1.31443 -3.34392,3.03687l-1.15059,11.92242c-4.99727,1.3202 -9.78531,3.33293 -14.22494,5.97969l-9.17109,-7.58412c-1.33455,-1.10384 -3.28956,-1.0122 -4.515,0.21164l-13.63369,13.61555c-1.22777,1.2262 -1.31964,3.18569 -0.21198,4.52138l7.6073,9.17412c-2.63772,4.43022 -4.65556,9.20118 -5.99716,14.17959l-11.94359,1.14958c-1.72338,0.16499 -3.03914,1.61267 -3.03923,3.34392v19.30498c0,1.73067 1.31484,3.17812 3.03755,3.34392l11.94191,1.14958c1.32149,4.98962 3.33541,9.76954 5.98305,14.20041l-7.5895,9.15329c-1.10766,1.33569 -1.01579,3.29519 0.21198,4.52138l13.6347,13.61689c1.22544,1.22384 3.18045,1.31548 4.515,0.21164l9.19125,-7.60159c4.43894,2.63696 9.21802,4.65374 14.20411,5.99413l1.15092,11.92578c0.16612,1.72244 1.61348,3.03691 3.34392,3.03688h19.33018c1.73044,0.00003 3.1778,-1.31443 3.34392,-3.03688l1.15059,-11.92242c4.99727,-1.32019 9.78531,-3.33292 14.22494,-5.97969l9.17109,7.5848c1.33455,1.10384 3.28956,1.0122 4.515,-0.21164l13.6347,-13.61689c1.22777,-1.2262 1.31964,-3.18569 0.21198,-4.52138l-7.6073,-9.17412c2.63866,-4.43142 4.65719,-9.20375 5.99917,-14.18362l11.77427,-1.14756c1.72099,-0.16773 3.03354,-1.61445 3.03352,-3.34359v-19.30465c-0.00021,-1.73078 -1.31537,-3.17812 -3.03822,-3.34359zM148.48438,92.60453l-11.11953,1.0834c-1.45274,0.14213 -2.64746,1.2061 -2.95625,2.63274c-1.30663,5.86496 -3.66467,11.44478 -6.95995,16.46934c-0.79621,1.23198 -0.70101,2.83812 0.23516,3.96742l7.19276,8.67391l-9.30547,9.29438l-8.69238,-7.18906c-1.14257,-0.94512 -2.76965,-1.02936 -4.0037,-0.20727c-5.00697,3.3084 -10.58572,5.65646 -16.45153,6.92434c-1.42896,0.30857 -2.49431,1.50582 -2.63476,2.96095l-1.0881,11.2697h-13.22888l-1.08777,-11.2697c-0.14044,-1.45513 -1.2058,-2.65238 -2.63476,-2.96095c-5.8722,-1.30432 -11.46024,-3.65949 -16.49453,-6.95189c-1.23047,-0.7929 -2.8327,-0.69777 -3.9607,0.23516l-8.69205,7.18906l-9.30547,-9.29472l7.19242,-8.67391c0.94814,-1.14351 1.0327,-2.77396 0.20795,-4.00941c-3.31118,-4.99757 -5.66201,-10.56845 -6.93207,-16.42734c-0.30925,-1.42841 -1.50652,-2.49298 -2.96129,-2.63308l-11.28784,-1.08676v-13.20234l11.2875,-1.08642c1.45477,-0.1401 2.65204,-1.20467 2.96129,-2.63308c1.30678,-5.86491 3.66481,-11.44471 6.95995,-16.46934c0.79621,-1.23198 0.70101,-2.83812 -0.23516,-3.96742l-7.19242,-8.67391l9.30547,-9.29472l8.69205,7.18906c1.14236,0.9449 2.76905,1.02926 4.00303,0.20761c5.00701,-3.30833 10.58575,-5.65638 16.45153,-6.92434c1.42896,-0.30857 2.49431,-1.50582 2.63476,-2.96095l1.08844,-11.26936h13.22888l1.08777,11.2697c0.14044,1.45513 1.2058,2.65238 2.63476,2.96095c5.87223,1.30422 11.46029,3.6594 16.49453,6.95189c1.23047,0.7929 2.8327,0.69777 3.9607,-0.23516l8.67727,-7.1763l9.16169,9.26717l-7.20586,8.68902c-0.94814,1.14351 -1.0327,2.77396 -0.20795,4.00941c3.31118,4.99757 5.66201,10.56845 6.93207,16.42734c0.30925,1.42841 1.50652,2.49298 2.96129,2.63308l11.2875,1.08676z" fill="url(#color-1)"></path><path d="M86,54.26667c-17.52583,0 -31.73333,14.20749 -31.73333,31.73333c0,17.52583 14.20749,31.73333 31.73333,31.73333c17.52583,0 31.73333,-14.20749 31.73333,-31.73333c-0.01981,-17.51762 -14.21571,-31.71352 -31.73333,-31.73333zM86,111.01458c-13.81517,0 -25.01458,-11.19941 -25.01458,-25.01458c0,-13.81517 11.19941,-25.01458 25.01458,-25.01458c13.81517,0 25.01458,11.19941 25.01458,25.01458c-0.01555,13.80872 -11.20585,24.99903 -25.01458,25.01458z" fill="url(#color-2)"></path></g></g></svg>